<?xml version="1.0"?>
<svg xmlns="http://www.w3.org/2000/svg" xmlns:xlink="http://www.w3.org/1999/xlink" xmlns:svgjs="http://svgjs.com/svgjs" version="1.1" width="512" height="512" x="0" y="0" viewBox="0 0 2138.327 2138.327" style="enable-background:new 0 0 512 512" xml:space="preserve" class=""><g>
<path xmlns="http://www.w3.org/2000/svg" style="" d="M1032.925,1852.654c0,98.076-79.506,177.583-177.583,177.583S677.76,1950.73,677.76,1852.654  c0-98.076,79.506-177.583,177.583-177.583S1032.925,1754.578,1032.925,1852.654z M1574.387,1675.072  c-98.076,0-177.583,79.507-177.583,177.583c0,98.076,79.507,177.583,177.583,177.583c98.076,0,177.583-79.507,177.583-177.583  C1751.969,1754.578,1672.463,1675.072,1574.387,1675.072z M2125.619,841.423l-218.512,649.464c0,0-18.088,96.383-110.247,96.383  s-993.407,0-1103.389,0s-114.604-120.809-114.604-120.809S461.624,596.637,455.814,544.088s-73.013-91.498-73.013-91.498  L93.651,317.522c-158.306-82.784-86.349-240.298,0-204.121c366.652,172.961,536.973,258.122,547.932,326.25  c11.091,68.26,30.367,232.64,30.367,232.64v1.056c2.245-0.66,3.829-1.056,3.829-1.056s1124.382,0,1351.477,0  C2190.447,672.291,2125.619,841.688,2125.619,841.423z M1809.535,1203.058l-2.245,0.132H737.57L759.619,1378h997.896  L1809.535,1203.058z M1913.708,850.534H693.339l23.502,186.825c234.092,0,919.601,0,1141.678,0L1913.708,850.534z" fill="#ffffff" data-original="#090509"/>
<g xmlns="http://www.w3.org/2000/svg">
</g>
<g xmlns="http://www.w3.org/2000/svg">
</g>
<g xmlns="http://www.w3.org/2000/svg">
</g>
<g xmlns="http://www.w3.org/2000/svg">
</g>
<g xmlns="http://www.w3.org/2000/svg">
</g>
<g xmlns="http://www.w3.org/2000/svg">
</g>
<g xmlns="http://www.w3.org/2000/svg">
</g>
<g xmlns="http://www.w3.org/2000/svg">
</g>
<g xmlns="http://www.w3.org/2000/svg">
</g>
<g xmlns="http://www.w3.org/2000/svg">
</g>
<g xmlns="http://www.w3.org/2000/svg">
</g>
<g xmlns="http://www.w3.org/2000/svg">
</g>
<g xmlns="http://www.w3.org/2000/svg">
</g>
<g xmlns="http://www.w3.org/2000/svg">
</g>
<g xmlns="http://www.w3.org/2000/svg">
</g>
</g></svg>
